<svg width="16" height="16" viewBox="0 0 16 16" fill="none" xmlns="http://www.w3.org/2000/svg">
<g clip-path="url(#clip0_1_133)">
<g filter="url(#filter0_d_1_133)">
<rect x="1" y="3" width="14" height="10" rx="2" fill="url(#paint0_linear_1_133)"/>
</g>
<g filter="url(#filter1_d_1_133)">
<path d="M7.65275 11.3643C6.98548 11.1855 6.47791 10.7948 6.13006 10.1923C5.7822 9.58982 5.69767 8.95493 5.87647 8.28766C6.05526 7.62038 6.44591 7.11282 7.04842 6.76496C7.65092 6.41711 8.28581 6.33258 8.95308 6.51137C9.18562 6.57368 9.39308 6.65918 9.57548 6.76787C9.75788 6.87656 9.92502 7.01063 10.0769 7.17009L11.7917 0.770333L15.4314 1.74558L14.7812 4.17203L12.3548 3.52187L10.7294 9.58799C10.5506 10.2553 10.1599 10.7628 9.55742 11.1107C8.95491 11.4585 8.32003 11.5431 7.65275 11.3643Z" fill="white"/>
<path d="M4.10844 9.04501L2.93122 9.36044C2.79972 8.81556 2.76925 8.26885 2.83981 7.7203C2.91037 7.17175 3.0844 6.65755 3.3619 6.17769C3.63926 5.69729 3.99766 5.2893 4.43709 4.95373C4.87653 4.61815 5.36513 4.37135 5.9029 4.21333L6.21834 5.39055C5.82593 5.4957 5.47401 5.66425 5.16257 5.89621C4.85113 6.12817 4.59405 6.42011 4.39132 6.77203C4.18826 7.12375 4.06415 7.49245 4.01898 7.87815C3.97382 8.26384 4.00364 8.65279 4.10844 9.04501ZM1.78371 9.62441L0.647076 9.92897C0.427235 9.08145 0.372692 8.23488 0.483449 7.38928C0.594205 6.54367 0.867408 5.74358 1.30306 4.98902C1.7389 4.23411 2.2953 3.59729 2.97224 3.07857C3.64917 2.55985 4.40949 2.18397 5.25319 1.95094L5.55775 3.08757C4.87623 3.27744 4.25622 3.5886 3.69771 4.02105C3.13921 4.45351 2.68413 4.97428 2.33248 5.58335C1.98083 6.19243 1.75737 6.84692 1.66211 7.54683C1.56684 8.24674 1.60738 8.93926 1.78371 9.62441Z" fill="white"/>
</g>
</g>
<defs>
<filter id="filter0_d_1_133" x="0" y="2.2" width="16" height="12" filterUnits="userSpaceOnUse" color-interpolation-filters="sRGB">
<feFlood flood-opacity="0" result="BackgroundImageFix"/>
<feColorMatrix in="SourceAlpha" type="matrix" values="0 0 0 0 0 0 0 0 0 0 0 0 0 0 0 0 0 0 127 0" result="hardAlpha"/>
<feOffset dy="0.2"/>
<feGaussianBlur stdDeviation="0.5"/>
<feColorMatrix type="matrix" values="0 0 0 0 0 0 0 0 0 0 0 0 0 0 0 0 0 0 0.25 0"/>
<feBlend mode="normal" in2="BackgroundImageFix" result="effect1_dropShadow_1_133"/>
<feBlend mode="normal" in="SourceGraphic" in2="effect1_dropShadow_1_133" result="shape"/>
</filter>
<filter id="filter1_d_1_133" x="-0.57221" y="-3.8" width="21.1309" height="20.4597" filterUnits="userSpaceOnUse" color-interpolation-filters="sRGB">
<feFlood flood-opacity="0" result="BackgroundImageFix"/>
<feColorMatrix in="SourceAlpha" type="matrix" values="0 0 0 0 0 0 0 0 0 0 0 0 0 0 0 0 0 0 127 0" result="hardAlpha"/>
<feOffset dy="0.2"/>
<feGaussianBlur stdDeviation="0.5"/>
<feColorMatrix type="matrix" values="0 0 0 0 0 0 0 0 0 0 0 0 0 0 0 0 0 0 0.25 0"/>
<feBlend mode="normal" in2="BackgroundImageFix" result="effect1_dropShadow_1_133"/>
<feBlend mode="normal" in="SourceGraphic" in2="effect1_dropShadow_1_133" result="shape"/>
</filter>
<linearGradient id="paint0_linear_1_133" x1="8" y1="3" x2="8" y2="13" gradientUnits="userSpaceOnUse">
<stop stop-color="#7D68FF"/>
<stop offset="1" stop-color="#250074"/>
</linearGradient>
<clipPath id="clip0_1_133">
<rect width="16" height="16" fill="white"/>
</clipPath>
</defs>
</svg>
